<svg width="24" height="24" viewBox="0 0 24 24" fill="none" xmlns="http://www.w3.org/2000/svg">
<path fill-rule="evenodd" clip-rule="evenodd" d="M2.0345 2.78183C2.43125 2.6628 2.84936 2.88794 2.96838 3.28469L3.55804 5.2502H22C22.2371 5.2502 22.4602 5.36229 22.6017 5.5525C22.7433 5.74271 22.7865 5.98863 22.7184 6.21571L19.7184 16.2157C19.6232 16.5329 19.3312 16.7502 19 16.7502H6.00001C5.66881 16.7502 5.37682 16.5329 5.28164 16.2157L1.53164 3.71571C1.41262 3.31896 1.63776 2.90085 2.0345 2.78183ZM4.00804 6.7502L6.55804 15.2502H18.442L20.992 6.7502H4.00804Z" fill="black" fill-opacity="0.8"/>
<path fill-rule="evenodd" clip-rule="evenodd" d="M11.9922 8.25C12.4064 8.25 12.7422 8.58579 12.7422 9V10.25H13.9922C14.4064 10.25 14.7422 10.5858 14.7422 11C14.7422 11.4142 14.4064 11.75 13.9922 11.75H12.7422V13C12.7422 13.4142 12.4064 13.75 11.9922 13.75C11.578 13.75 11.2422 13.4142 11.2422 13V11.75H9.99219C9.57797 11.75 9.24219 11.4142 9.24219 11C9.24219 10.5858 9.57797 10.25 9.99219 10.25H11.2422V9C11.2422 8.58579 11.578 8.25 11.9922 8.25Z" fill="black" fill-opacity="0.8"/>
<path fill-rule="evenodd" clip-rule="evenodd" d="M8 18.75C8.41421 18.75 8.75 19.0858 8.75 19.5C8.75 19.9142 9.08579 20.25 9.5 20.25C9.91421 20.25 10.25 19.9142 10.25 19.5C10.25 19.0858 10.5858 18.75 11 18.75C11.4142 18.75 11.75 19.0858 11.75 19.5C11.75 20.7426 10.7426 21.75 9.5 21.75C8.25736 21.75 7.25 20.7426 7.25 19.5C7.25 19.0858 7.58579 18.75 8 18.75Z" fill="black" fill-opacity="0.8"/>
<path fill-rule="evenodd" clip-rule="evenodd" d="M14 18.75C14.4142 18.75 14.75 19.0858 14.75 19.5C14.75 19.9142 15.0858 20.25 15.5 20.25C15.9142 20.25 16.25 19.9142 16.25 19.5C16.25 19.0858 16.5858 18.75 17 18.75C17.4142 18.75 17.75 19.0858 17.75 19.5C17.75 20.7426 16.7426 21.75 15.5 21.75C14.2574 21.75 13.25 20.7426 13.25 19.5C13.25 19.0858 13.5858 18.75 14 18.75Z" fill="black" fill-opacity="0.8"/>
</svg>
